<svg width="64" height="76" viewBox="0 0 64 76" fill="none" xmlns="http://www.w3.org/2000/svg">
<mask id="path-1-inside-1_64_34" fill="white">
<path fill-rule="evenodd" clip-rule="evenodd" d="M5 0C2.23858 0 0 2.23857 0 5V70.2941C0 73.0555 2.23858 75.2941 5 75.2941H52.3294L64 63.6235V5C64 2.23858 61.7614 0 59 0H5Z"/>
</mask>
<path d="M52.3294 75.2941V80.2941C53.6555 80.2941 54.9273 79.7673 55.8649 78.8297L52.3294 75.2941ZM64 63.6235L67.5355 67.1591C68.4732 66.2214 69 64.9496 69 63.6235H64ZM5 5V5V-5C-0.522842 -5 -5 -0.522857 -5 5H5ZM5 70.2941V5H-5V70.2941H5ZM5 70.2941H-5C-5 75.817 -0.522849 80.2941 5 80.2941V70.2941ZM52.3294 70.2941H5V80.2941H52.3294V70.2941ZM55.8649 78.8297L67.5355 67.1591L60.4645 60.088L48.7939 71.7586L55.8649 78.8297ZM59 5V63.6235H69V5H59ZM59 5H69C69 -0.522846 64.5228 -5 59 -5V5ZM5 5H59V-5H5V5Z" fill="black" mask="url(#path-1-inside-1_64_34)"/>
<path d="M57.4794 73.8062L62.2526 68.4364C62.8635 67.7492 64 68.1813 64 69.1008V74.4706C64 75.0229 63.5523 75.4706 63 75.4706H58.2268C57.364 75.4706 56.9062 74.4511 57.4794 73.8062Z" fill="black"/>
<path d="M27.2925 44.015L25.9975 44.6625L33.155 26.655C33.3183 26.2233 33.5108 25.9258 33.7325 25.7625C33.9542 25.5875 34.2633 25.5 34.66 25.5H38.895C39.1633 25.5 39.3617 25.5525 39.49 25.6575C39.63 25.7508 39.7 25.8908 39.7 26.0775C39.7 26.2175 39.6533 26.34 39.56 26.445C39.4667 26.55 39.3092 26.6317 39.0875 26.69L37.985 26.935C37.6 27.04 37.3375 27.1917 37.1975 27.39C37.0575 27.5883 36.9992 27.9267 37.0225 28.405L38.475 47.4275C38.4983 47.8008 38.58 48.0633 38.72 48.215C38.8717 48.3667 39.1283 48.4833 39.49 48.565L40.54 48.81C40.75 48.8683 40.9017 48.95 40.995 49.055C41.0883 49.1483 41.135 49.265 41.135 49.405C41.135 49.58 41.0708 49.7258 40.9425 49.8425C40.8142 49.9475 40.6158 50 40.3475 50H32.56C32.3033 50 32.105 49.9475 31.965 49.8425C31.8367 49.7375 31.7725 49.5975 31.7725 49.4225C31.7725 49.2825 31.8192 49.16 31.9125 49.055C32.0058 48.95 32.1692 48.8683 32.4025 48.81L33.4525 48.565C33.8725 48.46 34.1525 48.3317 34.2925 48.18C34.4442 48.0167 34.5083 47.7717 34.485 47.445L32.9625 28.265L34.1525 28.195L26.5225 47.585C26.3825 47.97 26.2308 48.2267 26.0675 48.355C25.9158 48.4717 25.7408 48.53 25.5425 48.53C25.3908 48.53 25.2508 48.5067 25.1225 48.46C25.0058 48.4133 24.895 48.32 24.79 48.18C24.685 48.04 24.5742 47.83 24.4575 47.55L16.6875 28.615L17.825 28.0025L16.25 46.9025C16.2033 47.3692 16.2967 47.725 16.53 47.97C16.7633 48.2033 17.1075 48.3958 17.5625 48.5475L18.7175 48.8625C18.8808 48.9208 19.0092 48.9908 19.1025 49.0725C19.1958 49.1542 19.2425 49.265 19.2425 49.405C19.2425 49.58 19.1783 49.7258 19.05 49.8425C18.9217 49.9475 18.7233 50 18.455 50H12.61C12.3417 50 12.1433 49.9475 12.015 49.8425C11.8867 49.7375 11.8225 49.5975 11.8225 49.4225C11.8225 49.2475 11.8808 49.1133 11.9975 49.02C12.1142 48.9267 12.2775 48.8508 12.4875 48.7925L13.3975 48.5125C13.8292 48.3958 14.1558 48.215 14.3775 47.97C14.5992 47.7133 14.7275 47.3517 14.7625 46.885L16.32 28.5625C16.355 28.0842 16.2908 27.7167 16.1275 27.46C15.9758 27.2033 15.6958 27.0342 15.2875 26.9525L14.29 26.7425C14.045 26.6842 13.8642 26.6025 13.7475 26.4975C13.6425 26.3925 13.59 26.2583 13.59 26.095C13.59 25.6983 13.87 25.5 14.43 25.5H18.63C19.0033 25.5 19.3008 25.57 19.5225 25.71C19.7558 25.85 19.9542 26.1358 20.1175 26.5675L27.2925 44.015ZM45.163 37.896V48.946L44.4065 49.949C44.2138 50.0397 44.0721 50.102 43.9815 50.136C43.8965 50.17 43.8086 50.187 43.718 50.187C43.616 50.187 43.5338 50.1558 43.4715 50.0935C43.4091 50.0368 43.378 49.9462 43.378 49.8215V39.0945C43.378 38.9642 43.3553 38.8707 43.31 38.814C43.2703 38.7573 43.2023 38.7262 43.106 38.7205L42.528 38.695C42.4316 38.678 42.3636 38.6497 42.324 38.61C42.2843 38.5703 42.2645 38.5193 42.2645 38.457C42.2645 38.3833 42.2871 38.3238 42.3325 38.2785C42.3835 38.2275 42.4713 38.1822 42.596 38.1425L44.0155 37.641C44.1968 37.573 44.3413 37.5277 44.449 37.505C44.5566 37.4767 44.6501 37.4625 44.7295 37.4625C44.8768 37.4625 44.9845 37.5022 45.0525 37.5815C45.1261 37.6552 45.163 37.76 45.163 37.896ZM44.755 44.356L44.483 43.9225C44.9193 43.2652 45.4236 42.7552 45.996 42.3925C46.5683 42.0298 47.1916 41.8485 47.866 41.8485C48.5346 41.8485 49.1296 42.0213 49.651 42.367C50.178 42.707 50.5916 43.1773 50.892 43.778C51.1923 44.373 51.3425 45.0615 51.3425 45.8435C51.3425 46.7332 51.1668 47.5038 50.8155 48.1555C50.4641 48.8072 49.9881 49.3115 49.3875 49.6685C48.7925 50.0198 48.1295 50.1955 47.3985 50.1955C46.7241 50.1955 46.1235 50.0312 45.5965 49.7025C45.0751 49.3738 44.653 48.9063 44.33 48.3L44.7465 47.8835C45.0355 48.3878 45.3811 48.7732 45.7835 49.0395C46.1915 49.3002 46.6306 49.4305 47.101 49.4305C47.5486 49.4305 47.951 49.3087 48.308 49.065C48.665 48.8157 48.9455 48.4388 49.1495 47.9345C49.3591 47.4302 49.464 46.8012 49.464 46.0475C49.464 45.3222 49.3648 44.7187 49.1665 44.237C48.9681 43.7553 48.6961 43.3927 48.3505 43.149C48.0048 42.8997 47.611 42.775 47.169 42.775C46.7156 42.775 46.285 42.9082 45.877 43.1745C45.469 43.4352 45.095 43.829 44.755 44.356Z" fill="black"/>
</svg>
